<mxfile host="65bd71144e">
    <diagram id="HIP3nbAZw_EuaXWnEj3U" name="Page-1">
        <mxGraphModel dx="1337" dy="487" grid="1" gridSize="10" guides="1" tooltips="1" connect="1" arrows="1" fold="1" page="1" pageScale="1" pageWidth="850" pageHeight="1100" math="0" shadow="0">
            <root>
                <mxCell id="0"/>
                <mxCell id="1" parent="0"/>
                <mxCell id="7" value="http://ics2o.mths.ca" style="swimlane;whiteSpace=wrap;html=1;" parent="1" vertex="1">
                    <mxGeometry x="40" y="40" width="760" height="480" as="geometry"/>
                </mxCell>
                <mxCell id="11" value="&lt;span style=&quot;text-wrap-mode: nowrap;&quot;&gt;SHOW MOTIVATIONAL PHRASES&lt;/span&gt;" style="whiteSpace=wrap;html=1;" parent="7" vertex="1">
                    <mxGeometry x="50" y="133" width="260" height="47" as="geometry"/>
                </mxCell>
                <mxCell id="18" value="Author: ......" style="text;html=1;align=center;verticalAlign=middle;resizable=0;points=[];autosize=1;strokeColor=none;fillColor=none;" vertex="1" parent="7">
                    <mxGeometry x="40" y="250" width="90" height="30" as="geometry"/>
                </mxCell>
                <mxCell id="19" value="" style="shape=image;verticalLabelPosition=bottom;labelBackgroundColor=default;verticalAlign=top;aspect=fixed;imageAspect=0;image=data:image/jpeg,/9j/4AAQSkZJRgABAQAAAQABAAD/2wCEAAkGBw8PDw8PEBIQDw8PDQ0NDxAPEA8PDQ8NFREWFhUWFRUYHSggGBolGxUVITEhJSkrLi4uFx8zODMtNygtLisBCgoKDg0OFRAQGy0fHR8rKy0tLS0tMC0rLS0rLSsrLS0tLS0tLS0tLS0tLS4tLS0tKy0rLS0rLS0tLS0tNy0tLf/AABEIAKcBLQMBIgACEQEDEQH/xAAcAAABBQEBAQAAAAAAAAAAAAAAAQIDBAYFBwj/xABEEAACAgEBBQQECwUHBAMAAAABAgADEQQFEhMhMQZBUXEiMmGRBxQjQlKBkqGxwdEVJFOywhczYnJzg/B0otLhNJOz/8QAGgEBAQEBAQEBAAAAAAAAAAAAAAECAwQFBv/EAC8RAAICAgECBAQEBwAAAAAAAAABAhEDEgQTITFBUXEFIrHRgZGh8SMyUmHB4fD/2gAMAwEAAhEDEQA/APPQI4LHBY4Cffo/PtjQscFjwscFlow2MCxwWSBI8JNEIgseEkipJVSUlESpJFSSBJIEg0kRBI8JJVSPCQWiEJJAklCR4SQ0iEJHBJMEjwkAgCR4STBI8JBSAVxeHJwkcEkKQCuLuSwEi7kAr8OHDlnhxeHAorbkNyWeHF3IKVdyG5LXDicOClbcibktFIm5IUq7kNyWeHE3IBX3Ym7LG5E3INJkG7GlZY3Im5ILK+5E3JY3IbkEMkFjwseEki1zR5SMLJFrkqpJFSCpESpJAklVI9Ug1REK48JJlSPCQKIQkkCSUJHqkooiVJIEkqpJFSQtEISOCScVx4riy0QBI8JJgkcEiy0QhI4JJwkcK5LFEASOCScVxwrkstFcJHBJYFcUVxZaIAkXclgVxwrkstFXci7ktcOHDiy0VeHE3Jb4cThxZaKnDibkuGuN4cWKKvDicOW+HE3JLFFThxOHLe5DhxZUilw4nDl01ROFGxdSmUibku8GLwZnY0oNmKVJIqSVa5Itc6WeRIiVJIqSVUkipFiiJUkgSSiuPVIspEqSRa5KqSVa4stEIrjxXJ1rki1xYoriuSBJOK48VyWWiEVx4STiuOCSWWiAVxwrlgJHCuTYupXFceK5YFccK42LqVxXHCuWRXHBJnY1qVhXHCuWRXHCuTYupWFcXhy0K44VybGtSqK4cOXUozHcASbmlBlDhw4cumqJwo2GhS4cThy7wT4Q+LnwjdDRlHhxOHL50x8I3gHwjdF6b9Chw4nDnQ+LGJ8XjdDpsobkNyXjRGmiTdGtGVAkOHLXChwplyNqLMStckWuTrXJFrnfY8FFcVyQVyda5ItcbCiBa5IK5OtckWqNhRXWuSrXJ1rki1ybFSIFrki1yda5ItcmxqiBa48VywtckWuTYupWFccK5aFccK5Ni6lUVx4rlgVxdyTY1qQBI4LItPtCmxzWjqzrvEqPWAG7k+XpLLeJnYupGFjwkcBHgSbGtRgSPFc5uq23XXq6dHhmuuUWADotWWG8frWdpUmdzWpCK44JLArjxXGxdStuRQktCqOFMy5mlBlXBhiXRRFOmmd0b0kUucVSZaOniGiTZGkpIiFnjgxcqe6KaoorMy0joskvMjejPSRHTGWuCYvCMm1eZrVPyKRojTRL5QxhrMnUNdNehSbTGRnTGdHgmLwjJ1WOkmYJao8VyyqR4SevqHytCutckWuThI9UjqDQhWuSLXJlWSBY3GhCK48VSYLJAsnULoQrXJFrkoWPAk3LoRrXJBXJFEeBJuaUCMVx4rkgjxM7mtCDhwNcsYgRJuXUxPaLs/ZVZ8f2eqpq0B4tePQ1dPIlCPpchgjBPulvsx2mo16ej8neo+V07n5SsjkcfSXPf78HlNM6zDdtOyHFb47o2+L6yrNmU9AXYHPJHR+vPv6HxGHKu6NpX2Y7bXbL4ttGnRcIMthpD2b+GU2NgYXHdyPtnR7V9pq9BWABxdTb6NFC5LuxOASBz3c+/oJ4vrduam+6vUW2F7qtzh2btasu628vqgZIPPnPRfgy2I1pO1NS5utsLpTv5dl3Tus5J7+RAx0GfHllZGzo8aRqOxew7aEa/VNxNbqTxLmO6TWD0qUj5o8Byz06TVokipEtIJdqM6tiBZIBHARY2LTEjgYkWS0a7j1aSKTIIoMy6NqTRZUH2R/D9kqZ9sUWEd85uHodY5V5osGkeH3RpAHhI1vbxki3E+B+qYaa8TanF+ADHsh6PiI/fz3ROXh+E5So7RbI2qB74zhgd4j2WNwJhRj6m95eg1lHiJGUHjJ8eUaVHhN7NeBmk/E8xt2zUusTRYY2vUbcjd3ABnkeec4U/dOvRQ7khEdyBkhFZiB9UwdPynaCwnHyVPh38BAevtcz1bsZqRW+pduSppy7HlyCnJ/CerqnzOl4HIt09lYBeuxATgF0ZQT4cxEVpuKLq9o6GokqG1Gk0+pAGN6s2IGVsZOBnI69xGZ5+77lltJI4lL8OxQclGxkZ8wQR7DDyB4i7UpYhVBZj0Cglj5ASw+jtUFmrsUDqWrcKPMkTQdidm4U6lxzcFas9yd7fX08h7Z2e0p/c7/8g/mEdRlWLsYIGWNNp7LPUR38SqkgeZlzsrsgaljZZ/dIcY6b79ceQ5e8TbWWV0pkla61HsVFEdRhYjDPs3UKMmqzHsUn8JXDTdaPaunuO7XYrN13eYbHsB6yttvY63qWUBbgMqw5b3sb9e6TdleJGWqosYZVHYeKoxHvAkg0t38K3/63/Sdfs5tSirThLLFRw9mVY4YelO9ptSlq71bB1yRkdMxuVY0YwaS3+Hb9h/0iNTYuAUcFjhcqwJPgPGbLVa2qrHEdU3s43u/HX8Zx9p7Qptt0grdXI1KZ3eePSEjmXRHJ+K3fw7PsP+kEosYZCORzGQrEZ7+6baZ3s7rgbLqT9N7E+1hh+B98jkzSijkXUMvrArnpvAjPvlG6bDb+m4lD49ZflF8x1HuzMRSpssRB1dgM+A7z9Q5xs0RxXkj5311YW61V9VbrVUeChyB909g+Cy/OzkX+Hfen/dvf1TyPadiPqL3QAI19zIB6oQuSAPZien/Bfqc6ErjHD1FqZHzshXyftY+oRdFas9I0wZvVVmx13QTj3S2UdRlldR4lWAnU7Pabh0rn1n+Ub6+g906l9IsRkPRlI8j3GWyamXFsm4Vn0LPsN+k5xDK+62QVbB8wec1/7Uo/iL75nYuhwuFZ9Cz7DfpF4dn0H+w36TUStZtClSVZ1BBwQe4y2KM+oYkgIxIxkBTkeY7orqyjJRlHiVIE6ey7Q9+pZSCp4OCO/kZJt8/IN/mT+YSX2s1RxOKJJVWz+qrN7QDj3ybYezhZ8o/NQcKvcxHUn2Tu3XJWuWIRRy58h5CE/MUZ99PYvMo2PLP4SIXDwmi02tqtzuOGI6gdceRlLbGzQ6l0GLAMnHzx+sjKnRzq33vVUnHXCk490WxivrKy58VYfjJOy75a3nn0U/EzuamhbFKN0PvB8RMKNqze9Mzq3ZOBkk9AAckyTcs+g/2G/SVq63q1Vdb9eImD3MueRE1kzGCZqWRrwM0tsfviUqn9ssr5zntE33Pnvsbr7LtoXX3YNjaViWCog5snPw6fdNv2U289tG32IVfi+k1ioWJCsFRgN7dO9nI7sdeXOeM1XOnNSQSCMgkHB6zZ/B9tKoftGjU8ZatZo2qsvqq4vBDH0ns8FA78YHsnfT5rOLktao3fwPtYuv2glxCNTo9l6RKzYbSFWkkKrnBOAhJAGOZxyAm7212aTUahL0wjOUTUkci9aA7p/wA2PR+seE+c9LrTp9Xfr9JbvLp9UWqLKay28HFZNYABU8xjIOM8gDy+kOy3aCraGlp1VXJbF9JfnV2jk6HyPvGD3zbV9jmaOoqoVRhRyRF6DAHQfUPulHtO37lqP9P+oTzzZ3a/492lTT1u3xfR06qpFBIW27c+UsI7+YCr7AT86bbtlquHs7Vvje3ad7Hj6QkldOirxLPY8AaKkjv4jHz4jD8pwvhB1uLKKSSBw7LsfNJDBc59mf8AunA+CXt3VqbL9n2EJYths0gJGLK90cRAe9gwZsdcMfombftVsKvaGneh2NTMliJagBevfXB5d46cvYJlqThXmXtZ59s3X54N9ZIJ4dqePPBA5T10tPNdHsSrY40Pxy46rf1el0FHCoFSLa2RW1gLnkN0dO/HdNxtLalWnrNljADnurkBnbGd1R3mZxpxTciunSRh9vMF1eoA6cVj9Z5n7yZruxb50v8Au2flPONRrGsd7G9Z3Zz4ZJzN72Hs/dP96z8pwwZlObSOmTHrGxvbpuWn87v6Jn9kWfvGn/6in+cTrdv7cDTed34JM3sa/wDedN/1NH/6CTLm1ya+whjuNnrOZ5xXrjTqTYPmXOSPFd4gj6xmehhp5NrL/lLP9Wz+YzryculGcUNrPVN8MAwOQwDA+IIyJnNn7J4eovfGFHo1eGHGTjyHKL2P2lxaDWT6VJ3f9s81/MfUJ13adYSU4qSMSTi2mfIz7OZTqw/ovpSVYAFl4nHWsje+tvPHnPUPgY0b21bpBFZ1VlucY3qlVAfP0gVmR2jeVXboYDffXurHK55ahs+eMn3z2H4JtGa9m6exhutZUm7nH92Oh+s5Pukb2df3LVKzdX38Ot3xndUkADJJ7h78SPs9q2toUuGDqSjbwIJ7wfcR7pX1O2NPQwS2xUYrvAHOd3OM8h7DJtLtvTWMqJarMxwo9IZP1iXqR2rZexNXXgcntZp9yxbRndsGDjoHH6j8DOCbvaZuNtaXj0Og9bG+n+oOY9/T655s2oI68vPrPNyMnTl38ztijuj1yYLbdhGpu5/P/ITd70837Q2/vd4yP7w9/sE6cnJpFMxhjs2aPsY2Tf5Vf1zo9qP/AIzf5q/5hON2DfJ1HMHlT+Lzp9sHxo3P+Or+cRDInh39xKP8SjobHUDT04/hIfrIyfvMzna61uMq/NWoEDuyScn7h7pb7HbWWyrgE/KVZwD1avPIjy6e6dDbOx01QGSUdchXAzy8CO8TSl1MacCVrOpGS2Vey6ikr1NqL5gkAj3Gegzg7I7NpQ4sd+Ky+qN3dVT44ycmdDbO0k01TWMRvYIrU9WfuH6ywbhFufYSptKJyey+Bfq1HRXwPIO4mjZgMZIGTgZ7z4TIdhHJfUEnJK1knxJLTqdsbCukZgcEWVEEHBB3hg5mMeZdHqe5ZQ+fU6mq0iWGsn1q3V1I6gg8x5GWJw+zG3Rqk3GIFyD0h031+kPz/wDc7k7Y5xnHaPgzEouLpmDoeXkflOJp7peS/lPhS5qPorjny1mOL93QeHd/z9YyE/QHzS3ptay1W07zcOxq3K77BN9Dybd6E8yM92TJ9LtPU0qRTfdSrHeK122VqTjGSFOCeQ905sWAajsn2sfZ2pOqFSW2EN1YoOalfm8sc/CbDa/wt26um7TmmlK7dMFLE2BhcWAwDkjAznOOgM8nLGPUiZcTSkP0zFXSzeaspZW3EQ4sQ72d4Y5gjGQR4T2n+03XaOuxrVq1VNa18JnJS+3O7nLrkfOHVc8p4spz5dJb1evutJLOw9DcwOSbuMer05gTM1NyTT7GoOCi013PQu23wlvq10w+K8F9NrNNq0LXWneZV3ipXcXK88dczg9qe1F+r1ml1T2O+7pbL61IRErJV8qoHL5oz1J9sz21debgMAD094jqd7cVQQfq6SC7UNup6QBGn4JGPSC8Q8s+38JNZNKy3BN0b7S7Vuemt8rl0VvUJwSPHpF2p2912l0tekqYIbLndrV9C014wyZ+b1HMDPKcnYmutGnrA6Bccxk4z+E4PaTXG27DYxWpUYA9c8z+Q+qc8eFwldI75csJQpN2bOjtPqb9Doam4SfFltVWCqGsyepHQHC92M88yPTdpraL6mNlZat67wrBQrBXGAT15kYmb0OpIr0KDHKy1gCASSA2SfZzMpdoLy+o5Y3lVF9FQPSBJ/ObeJOVySMdSMYUj2Sv4V9V86nTjy4p/qmZ/bYsZiS7M7sSFwqgk5xnMz+m1JapGcKp3RvEru+l3+XOQbJtyrsAPSutPlz9kxlwdRfMbx5YQfY9A2Jtq3SWcRACWQoVdmcEHB54I7wJ0dp/CRZTWXsSpB6oYCwnePTAzPGtr7T1AvIDvWEwFCsQMePI88+2c7U6y205sdnPXmeXu6eM4YuLmh23+X0/c1lz4ZXUe51do7bWwatVQ7uptqs3mOHGMFs9eZI++em6D4VUr09eV0yblda8JDYSuBgKFzk4xPFswzPV0UlUXX/V/g8vU721Z7Pq+0Pxyw3gq28Ao4Z3lUAYwP8AnfEp2ka2VwcMrK6n/EDkfhPG1cgEAkA9QCQD5+MuafatqHmRYN3dxblwBnPLn1z3zxT+H3LbY9cOXFKnE9//ALRb+vCo97/rM5qtqC6x7Pk04jM5VWG6pPXGT45nlqbeOOdVRO6cEb49LuJGensl3TbeoKjiJuv0O6GK+Y5/dGXiZMiqU2/wRrHmwxfZV+f2PdKe3Wpf1K9O3k5P9U4G0Lrr77LCuGsbeIXO4OXcend4zAaHtRVVg1si5zyIbI8x3TpN2htb0tyhsjO+awxI8c5xPLm43KyfLJ2vLwOkZ4YO41+pu9ibXv0JsKrU/ECA77Hlu5xjB/xSXbHay/U1NS9dShirZUtveic95nmbbSvPMMo5/NSsD8Iv7Wt72U+YH5QuJzFDRSVenv8AgN8DltJd/b/Zr69WyMGVt11OVZSQwPsM0ui7e6hABald2PnZNbnzxy+6eU2doNwElkGOuFb9ZHV2o3slctjwXHPyJkxcLmYn8kqNzy8WX8x7Bf8ACFYR6FKIfFnaz7gBM3r9r26h9+1y7dBnACjwAHITBv2mcerWSfb6I/OV7O0uq7krA9quT+Im8nB5ubtOXb3+xmOXiY/D6Hp2w+0raM2FAjGwKDv55buemD7ZZ2v20s1NRqZa1BZWyu9nkc95njrbd1Oc+gPYFbH45kg29djLJUfM2A+7enePw7kRx6b9vTt5nN8jjOW1dz0bSbVaqxba2w6HIP5HxB6TR/2ian+BV55P/lPGU2+wx8hWenR2I/8AUvUbeuB5abA8VOfyEzj4PIwprG/odHm4s62+j+xuatot3An7H6yyu0bfoN76v1mGHaG3vpf7CmSr2nt/h2j/AGhPI/hOT+lfmelczj+v6HmMIQn6E+AEIQgBHBSY2GYA7mJKt3/Ooke/G5gD3bMkfmviOUrxcwC1V0GCR7MkSN6j1GD5dfdGC09/Pz6++OS0DqPwJgFjTa3deklcioMuByJBJPf35aRvqN67ikYzYHIzkgZGRmBtX2+RGZHYU7uvs5fdAOptDXFqKwHLHiNvEZXPInHuIlajWslDqpKk2pzHXdKnPP6h7pQzFJ5Y9ogC3Ws7F2OWY5J5DPujIQgBCEIAoMWIIkAdEiQgCyV9Q7BVLEqq7qjPILnpiQ5hmC2TU6mxOSsVHgOmfKWdVtA2VonMMCd88gG8OkoQgWE6uxraUDs7YckIBj5vXP8AzwE5WYZghpH2nQO8nr0B5YA/HP3RTtXT+3lnkFOTy8ZmoZltls1n7Vo5c17uoJwefLv8In7YqblvL3dQwH3+UymYuYsWbFdpVHkGU9PnAf8AOkRdqUZxvDPLmeQ7unvmPhFjY3CbQqOMEc/aAeuJKLUPQE+XOYKPrvdfVZlz13WIz7otF2IoQhIZCEIQAhCEAIQhACEIQAixIQBYkIQAixIuYARIsIAmYRcQxADMIkIAsMxIGALEhCAEURIsAIkIQBYRIQAhCEAXMIkIAsIkXMASEIQAhCEASLCEAIQhACEIQAhCEAIQhACEIQAhCEAIQhACEIQAhCEAIQhACEIQAhCEAIQhACEIQAhCEAXEIQgH/9k=;" vertex="1" parent="7">
                    <mxGeometry x="430" y="103" width="301" height="167" as="geometry"/>
                </mxCell>
                <mxCell id="17" value="Quote: &quot;....&quot;" style="text;html=1;align=center;verticalAlign=middle;resizable=0;points=[];autosize=1;strokeColor=none;fillColor=none;" vertex="1" parent="7">
                    <mxGeometry x="45" y="220" width="80" height="30" as="geometry"/>
                </mxCell>
                <mxCell id="9" value="&lt;font style=&quot;font-size: 24px;&quot;&gt;Motivational Bible Phrases, with JS (API)&lt;/font&gt;" style="text;html=1;align=center;verticalAlign=middle;resizable=0;points=[];autosize=1;strokeColor=none;fillColor=none;" parent="1" vertex="1">
                    <mxGeometry x="170" y="73" width="460" height="40" as="geometry"/>
                </mxCell>
                <mxCell id="16" value="" style="endArrow=none;html=1;" parent="1" edge="1">
                    <mxGeometry width="50" height="50" relative="1" as="geometry">
                        <mxPoint x="40" y="120" as="sourcePoint"/>
                        <mxPoint x="800" y="120" as="targetPoint"/>
                    </mxGeometry>
                </mxCell>
            </root>
        </mxGraphModel>
    </diagram>
</mxfile>